<svg xmlns="http://www.w3.org/2000/svg" version="1.1" xmlns:xlink="http://www.w3.org/1999/xlink" width="180" height="180"><svg xmlns="http://www.w3.org/2000/svg" version="1.1" xmlns:xlink="http://www.w3.org/1999/xlink" width="180" height="180"><svg width="180" height="180" viewBox="0 0 180 180" fill="none" xmlns="http://www.w3.org/2000/svg">
<path d="M18.7499 66.75L86.2499 105.75C87.7499 106.5 88.4999 106.5 89.9999 106.5C91.4999 106.5 92.2499 106.5 93.7499 105.75L161.25 66.75C162.75 66 163.5 65.25 164.25 63.75C165.75 60 165 55.5 161.25 53.25L93.7499 14.25C91.4999 12.75 88.4999 12.75 86.2499 14.25L18.7499 53.25C17.2499 54 16.4999 54.75 15.7499 56.25C14.2499 60 14.9999 64.5 18.7499 66.75ZM161.25 83.25L159.75 82.5L93.7499 120.75C91.4999 122.25 88.4999 122.25 86.2499 120.75L20.2499 82.5L18.7499 83.25C14.9999 85.5 14.2499 90 15.7499 93.75C16.4999 95.25 17.2499 96 18.7499 96.75L86.2499 135.75C88.4999 137.25 91.4999 137.25 93.7499 135.75L161.25 96.75C165 94.5 165.75 90 164.25 86.25C163.5 84.75 162.75 84 161.25 83.25ZM161.25 113.25L159.75 112.5L93.7499 150.75C91.4999 152.25 88.4999 152.25 86.2499 150.75L20.2499 112.5L18.7499 113.25C14.9999 115.5 14.2499 120 15.7499 123.75C16.4999 125.25 17.2499 126 18.7499 126.75L86.2499 165.75C88.4999 167.25 91.4999 167.25 93.7499 165.75L161.25 126.75C165 124.5 165.75 120 164.25 116.25C163.5 114.75 162.75 114 161.25 113.25Z" fill="#FF8000"></path>
</svg></svg><style>@media (prefers-color-scheme: light) { :root { filter: none; } }
@media (prefers-color-scheme: dark) { :root { filter: none; } }
</style></svg>